<svg id="visual" viewBox="0 0 900 675" width="900" height="675" xmlns="http://www.w3.org/2000/svg" xmlns:xlink="http://www.w3.org/1999/xlink" version="1.1"><rect x="0" y="0" width="900" height="675" fill="#272838"></rect><path d="M0 373L25 388.7C50 404.3 100 435.7 150 445.3C200 455 250 443 300 428.8C350 414.7 400 398.3 450 396.7C500 395 550 408 600 406.8C650 405.7 700 390.3 750 387.2C800 384 850 393 875 397.5L900 402L900 676L875 676C850 676 800 676 750 676C700 676 650 676 600 676C550 676 500 676 450 676C400 676 350 676 300 676C250 676 200 676 150 676C100 676 50 676 25 676L0 676Z" fill="#00664e"></path><path d="M0 455L25 454.5C50 454 100 453 150 458.7C200 464.3 250 476.7 300 475.3C350 474 400 459 450 451.5C500 444 550 444 600 442.5C650 441 700 438 750 449.5C800 461 850 487 875 500L900 513L900 676L875 676C850 676 800 676 750 676C700 676 650 676 600 676C550 676 500 676 450 676C400 676 350 676 300 676C250 676 200 676 150 676C100 676 50 676 25 676L0 676Z" fill="#2e8979"></path><path d="M0 511L25 512.3C50 513.7 100 516.3 150 514C200 511.7 250 504.3 300 506.2C350 508 400 519 450 517.8C500 516.7 550 503.3 600 498.8C650 494.3 700 498.7 750 494.8C800 491 850 479 875 473L900 467L900 676L875 676C850 676 800 676 750 676C700 676 650 676 600 676C550 676 500 676 450 676C400 676 350 676 300 676C250 676 200 676 150 676C100 676 50 676 25 676L0 676Z" fill="#56aca6"></path><path d="M0 577L25 575C50 573 100 569 150 566C200 563 250 561 300 560.5C350 560 400 561 450 563.8C500 566.7 550 571.3 600 575.5C650 579.7 700 583.3 750 582.2C800 581 850 575 875 572L900 569L900 676L875 676C850 676 800 676 750 676C700 676 650 676 600 676C550 676 500 676 450 676C400 676 350 676 300 676C250 676 200 676 150 676C100 676 50 676 25 676L0 676Z" fill="#80d0d3"></path><path d="M0 629L25 623.8C50 618.7 100 608.3 150 600.3C200 592.3 250 586.7 300 586.5C350 586.3 400 591.7 450 601.3C500 611 550 625 600 628.5C650 632 700 625 750 625C800 625 850 632 875 635.5L900 639L900 676L875 676C850 676 800 676 750 676C700 676 650 676 600 676C550 676 500 676 450 676C400 676 350 676 300 676C250 676 200 676 150 676C100 676 50 676 25 676L0 676Z" fill="#adf5ff"></path></svg>